<svg xmlns="http://www.w3.org/2000/svg" width="18.85" height="24" viewBox="0 0 18.85 24">
  <path id="Icon_awesome-trash-alt" data-name="Icon awesome-trash-alt" d="M1.346,21.75A2.144,2.144,0,0,0,3.366,24H15.484a2.144,2.144,0,0,0,2.02-2.25V6H1.346Zm11.445-12a.677.677,0,1,1,1.346,0v10.5a.677.677,0,1,1-1.346,0Zm-4.039,0a.677.677,0,1,1,1.346,0v10.5a.677.677,0,1,1-1.346,0Zm-4.039,0A.715.715,0,0,1,5.386,9a.715.715,0,0,1,.673.75v10.5a.715.715,0,0,1-.673.75.715.715,0,0,1-.673-.75ZM18.177,1.5H13.128l-.4-.877a1,1,0,0,0-.9-.623H7.018a.994.994,0,0,0-.9.623l-.4.877H.673A.715.715,0,0,0,0,2.25v1.5a.715.715,0,0,0,.673.75h17.5a.715.715,0,0,0,.673-.75V2.25A.715.715,0,0,0,18.177,1.5Z" transform="translate(0 0)" fill="#4b4a4a"/>
</svg>
